<svg width="213" height="38" viewBox="0 0 213 38" fill="none" xmlns="http://www.w3.org/2000/svg">
<path fill-rule="evenodd" clip-rule="evenodd" d="M123.891 6.89562H98.1586V0H123.891V6.89562ZM20.5059 27.8485C20.5059 26.4175 20.0033 25.3232 18.9981 24.5657C17.9929 23.7912 16.1836 22.9832 13.5701 22.1414C10.9566 21.2828 8.88756 20.4411 7.36303 19.6162C3.20824 17.3603 1.13084 14.3215 1.13084 10.5C1.13084 8.51347 1.6837 6.74579 2.78941 5.19697C3.91187 3.63131 5.5118 2.41077 7.58919 1.53535C9.68334 0.659933 12.0288 0.222222 14.6255 0.222222C17.239 0.222222 19.5677 0.70202 21.6116 1.66162C23.6555 2.60438 25.2387 3.94276 26.3611 5.67677C27.5004 7.41077 28.07 9.38047 28.07 11.5859H20.531C20.531 9.90236 20.0033 8.59764 18.9479 7.67172C17.8924 6.72896 16.4097 6.25758 14.4999 6.25758C12.657 6.25758 11.2246 6.6532 10.2027 7.44444C9.18075 8.21885 8.66977 9.24579 8.66977 10.5253C8.66977 11.7205 9.26451 12.7222 10.454 13.5303C11.6602 14.3384 13.4277 15.096 15.7564 15.803C20.0452 17.0993 23.1697 18.7071 25.1298 20.6263C27.0899 22.5455 28.07 24.936 28.07 27.798C28.07 30.9798 26.8721 33.4798 24.4764 35.298C22.0807 37.0993 18.8557 38 14.8014 38C11.9869 38 9.42367 37.4865 7.11173 36.4596C4.79979 35.4158 3.03233 33.9933 1.80934 32.1919C0.603115 30.3906 0 28.303 0 25.9293H7.56406C7.56406 29.9865 9.97652 32.0152 14.8014 32.0152C16.594 32.0152 17.9929 31.6532 18.9981 30.9293C20.0033 30.1886 20.5059 29.1616 20.5059 27.8485ZM66.0729 6.43266H54.865V37.064H47.3261V6.43266H36.269V0.296296H66.0729V6.43266ZM151.744 27.3939L142.345 0.727273H132.494V37.4949H140.033V27.4444L139.279 10.1212L149.13 37.4949H154.307L164.183 10.096L163.429 27.4444V37.4949H170.993V0.727273H161.092L151.744 27.3939ZM213 19.9444C213 23.564 212.363 26.7374 211.09 29.4646C209.817 32.1919 207.991 34.2963 205.612 35.7778C203.25 37.2593 200.536 38 197.47 38C194.437 38 191.732 37.2677 189.353 35.803C186.974 34.3384 185.131 32.2508 183.824 29.5404C182.518 26.8131 181.856 23.6818 181.839 20.1465V18.3283C181.839 14.7088 182.484 11.5269 183.774 8.78283C185.081 6.02189 186.915 3.90909 189.277 2.44444C191.656 0.962963 194.37 0.222222 197.42 0.222222C200.469 0.222222 203.174 0.962963 205.536 2.44444C207.915 3.90909 209.75 6.02189 211.04 8.78283C212.347 11.5269 213 14.7003 213 18.303V19.9444ZM205.361 18.2778C205.361 14.4226 204.674 11.4933 203.3 9.4899C201.926 7.48653 199.966 6.48485 197.42 6.48485C194.89 6.48485 192.938 7.47811 191.564 9.46465C190.191 11.4343 189.495 14.33 189.479 18.1515V19.9444C189.479 23.6987 190.165 26.6111 191.539 28.6818C192.913 30.7525 194.89 31.7879 197.47 31.7879C200 31.7879 201.943 30.7946 203.3 28.8081C204.657 26.8047 205.344 23.8923 205.361 20.0707V18.2778ZM72.4257 31.0303V37.9259H98.1586V31.0303H72.4257ZM85.2921 15.5152V22.4108H111.025V15.5152H85.2921Z" fill="white"/>
</svg>
