<svg width="82" height="10" viewBox="0 0 82 10" fill="none" xmlns="http://www.w3.org/2000/svg">
<path d="M7.18359 1.89258H4.57031V9H2.8125V1.89258H0.234375V0.46875H7.18359V1.89258ZM13.9242 5.30273H10.5492V7.58789H14.5102V9H8.79141V0.46875H14.4984V1.89258H10.5492V3.92578H13.9242V5.30273ZM20.9578 7.24219H17.8758L17.2898 9H15.4207L18.5965 0.46875H20.2254L23.4187 9H21.5496L20.9578 7.24219ZM18.3504 5.81836H20.4832L19.4109 2.625L18.3504 5.81836ZM27.1125 0.46875L29.3039 6.65625L31.4836 0.46875H33.7922V9H32.0285V6.66797L32.2043 2.64258L29.9016 9H28.6945L26.3977 2.64844L26.5734 6.66797V9H24.8156V0.46875H27.1125ZM35.9039 8.16797C35.9039 7.89844 35.9938 7.67969 36.1734 7.51172C36.357 7.34375 36.5855 7.25977 36.859 7.25977C37.1363 7.25977 37.3648 7.34375 37.5445 7.51172C37.7281 7.67969 37.8199 7.89844 37.8199 8.16797C37.8199 8.43359 37.7301 8.65039 37.5504 8.81836C37.3707 8.98242 37.1402 9.06445 36.859 9.06445C36.5816 9.06445 36.3531 8.98242 36.1734 8.81836C35.9938 8.65039 35.9039 8.43359 35.9039 8.16797ZM44.4434 6.76172C44.4434 6.42969 44.3262 6.17578 44.0918 6C43.8574 5.82031 43.4355 5.63281 42.8262 5.4375C42.2168 5.23828 41.7344 5.04297 41.3789 4.85156C40.4102 4.32812 39.9258 3.62305 39.9258 2.73633C39.9258 2.27539 40.0547 1.86523 40.3125 1.50586C40.5742 1.14258 40.9473 0.859375 41.4316 0.65625C41.9199 0.453125 42.4668 0.351562 43.0723 0.351562C43.6816 0.351562 44.2246 0.462891 44.7012 0.685547C45.1777 0.904297 45.5469 1.21484 45.8086 1.61719C46.0742 2.01953 46.207 2.47656 46.207 2.98828H44.4492C44.4492 2.59766 44.3262 2.29492 44.0801 2.08008C43.834 1.86133 43.4883 1.75195 43.043 1.75195C42.6133 1.75195 42.2793 1.84375 42.041 2.02734C41.8027 2.20703 41.6836 2.44531 41.6836 2.74219C41.6836 3.01953 41.8223 3.25195 42.0996 3.43945C42.3809 3.62695 42.793 3.80273 43.3359 3.9668C44.3359 4.26758 45.0645 4.64062 45.5215 5.08594C45.9785 5.53125 46.207 6.08594 46.207 6.75C46.207 7.48828 45.9277 8.06836 45.3691 8.49023C44.8105 8.9082 44.0586 9.11719 43.1133 9.11719C42.457 9.11719 41.8594 8.99805 41.3203 8.75977C40.7812 8.51758 40.3691 8.1875 40.084 7.76953C39.8027 7.35156 39.6621 6.86719 39.6621 6.31641H41.4258C41.4258 7.25781 41.9883 7.72852 43.1133 7.72852C43.5312 7.72852 43.8574 7.64453 44.0918 7.47656C44.3262 7.30469 44.4434 7.06641 44.4434 6.76172ZM54.4242 1.89258H51.8109V9H50.0531V1.89258H47.475V0.46875H54.4242V1.89258ZM61.1648 5.30273H57.7898V7.58789H61.7508V9H56.032V0.46875H61.7391V1.89258H57.7898V3.92578H61.1648V5.30273ZM65.6789 0.46875L67.8703 6.65625L70.05 0.46875H72.3586V9H70.5949V6.66797L70.7707 2.64258L68.468 9H67.2609L64.9641 2.64844L65.1398 6.66797V9H63.382V0.46875H65.6789ZM81.5016 4.92773C81.5016 5.76758 81.3531 6.50391 81.0563 7.13672C80.7594 7.76953 80.3336 8.25781 79.7789 8.60156C79.2281 8.94531 78.5953 9.11719 77.8805 9.11719C77.1734 9.11719 76.5426 8.94727 75.9879 8.60742C75.4332 8.26758 75.0035 7.7832 74.6988 7.1543C74.3941 6.52148 74.2398 5.79492 74.2359 4.97461V4.55273C74.2359 3.71289 74.3863 2.97461 74.6871 2.33789C74.9918 1.69727 75.4195 1.20703 75.9703 0.867188C76.525 0.523438 77.1578 0.351562 77.8688 0.351562C78.5797 0.351562 79.2105 0.523438 79.7613 0.867188C80.316 1.20703 80.7438 1.69727 81.0445 2.33789C81.3492 2.97461 81.5016 3.71094 81.5016 4.54688V4.92773ZM79.7203 4.54102C79.7203 3.64648 79.5602 2.9668 79.2398 2.50195C78.9195 2.03711 78.4625 1.80469 77.8688 1.80469C77.2789 1.80469 76.8238 2.03516 76.5035 2.49609C76.1832 2.95312 76.0211 3.625 76.0172 4.51172V4.92773C76.0172 5.79883 76.1773 6.47461 76.4977 6.95508C76.818 7.43555 77.2789 7.67578 77.8805 7.67578C78.4703 7.67578 78.9234 7.44531 79.2398 6.98438C79.5563 6.51953 79.7164 5.84375 79.7203 4.95703V4.54102Z" fill="white"/>
</svg>
