<svg width="368" height="648" viewBox="0 0 368 648" fill="none" xmlns="http://www.w3.org/2000/svg">
<g filter="url(#filter0_d_209:1697)">
<rect width="360" height="640" transform="translate(4)" fill="#1D77EF"/>
<path fill-rule="evenodd" clip-rule="evenodd" d="M201.891 297.896H176.159V291H201.891V297.896ZM98.5059 318.848C98.5059 317.418 98.0033 316.323 96.9981 315.566C95.9929 314.791 94.1836 313.983 91.5701 313.141C88.9566 312.283 86.8876 311.441 85.363 310.616C81.2082 308.36 79.1308 305.322 79.1308 301.5C79.1308 299.513 79.6837 297.746 80.7894 296.197C81.9119 294.631 83.5118 293.411 85.5892 292.535C87.6833 291.66 90.0288 291.222 92.6255 291.222C95.239 291.222 97.5677 291.702 99.6116 292.662C101.655 293.604 103.239 294.943 104.361 296.677C105.5 298.411 106.07 300.38 106.07 302.586H98.531C98.531 300.902 98.0033 299.598 96.9479 298.672C95.8924 297.729 94.4097 297.258 92.4999 297.258C90.657 297.258 89.2246 297.653 88.2027 298.444C87.1807 299.219 86.6698 300.246 86.6698 301.525C86.6698 302.721 87.2645 303.722 88.454 304.53C89.6602 305.338 91.4277 306.096 93.7564 306.803C98.0452 308.099 101.17 309.707 103.13 311.626C105.09 313.545 106.07 315.936 106.07 318.798C106.07 321.98 104.872 324.48 102.476 326.298C100.081 328.099 96.8557 329 92.8014 329C89.9869 329 87.4237 328.487 85.1117 327.46C82.7998 326.416 81.0323 324.993 79.8093 323.192C78.6031 321.391 78 319.303 78 316.929H85.5641C85.5641 320.987 87.9765 323.015 92.8014 323.015C94.594 323.015 95.9929 322.653 96.9981 321.929C98.0033 321.189 98.5059 320.162 98.5059 318.848ZM144.073 297.433H132.865V328.064H125.326V297.433H114.269V291.296H144.073V297.433ZM229.744 318.394L220.345 291.727H210.494V328.495H218.033V318.444L217.279 301.121L227.13 328.495H232.307L242.183 301.096L241.429 318.444V328.495H248.993V291.727H239.092L229.744 318.394ZM291 310.944C291 314.564 290.363 317.737 289.09 320.465C287.817 323.192 285.991 325.296 283.612 326.778C281.25 328.259 278.536 329 275.47 329C272.437 329 269.732 328.268 267.353 326.803C264.974 325.338 263.131 323.251 261.824 320.54C260.518 317.813 259.856 314.682 259.839 311.146V309.328C259.839 305.709 260.484 302.527 261.774 299.783C263.081 297.022 264.915 294.909 267.277 293.444C269.656 291.963 272.37 291.222 275.42 291.222C278.469 291.222 281.174 291.963 283.536 293.444C285.915 294.909 287.75 297.022 289.04 299.783C290.347 302.527 291 305.7 291 309.303V310.944ZM283.361 309.278C283.361 305.423 282.674 302.493 281.3 300.49C279.926 298.487 277.966 297.485 275.42 297.485C272.89 297.485 270.938 298.478 269.564 300.465C268.191 302.434 267.495 305.33 267.479 309.152V310.944C267.479 314.699 268.165 317.611 269.539 319.682C270.913 321.753 272.89 322.788 275.47 322.788C278 322.788 279.943 321.795 281.3 319.808C282.657 317.805 283.344 314.892 283.361 311.071V309.278ZM150.426 322.03V328.926H176.159V322.03H150.426ZM163.292 306.515V313.411H189.025V306.515H163.292Z" fill="white"/>
<path d="M149.184 586.893H146.57V594H144.812V586.893H142.234V585.469H149.184V586.893ZM155.924 590.303H152.549V592.588H156.51V594H150.791V585.469H156.498V586.893H152.549V588.926H155.924V590.303ZM162.958 592.242H159.876L159.29 594H157.421L160.596 585.469H162.225L165.419 594H163.55L162.958 592.242ZM160.35 590.818H162.483L161.411 587.625L160.35 590.818ZM169.112 585.469L171.304 591.656L173.484 585.469H175.792V594H174.029V591.668L174.204 587.643L171.902 594H170.695L168.398 587.648L168.573 591.668V594H166.816V585.469H169.112ZM177.904 593.168C177.904 592.898 177.994 592.68 178.173 592.512C178.357 592.344 178.586 592.26 178.859 592.26C179.136 592.26 179.365 592.344 179.545 592.512C179.728 592.68 179.82 592.898 179.82 593.168C179.82 593.434 179.73 593.65 179.55 593.818C179.371 593.982 179.14 594.064 178.859 594.064C178.582 594.064 178.353 593.982 178.173 593.818C177.994 593.65 177.904 593.434 177.904 593.168ZM186.443 591.762C186.443 591.43 186.326 591.176 186.092 591C185.857 590.82 185.436 590.633 184.826 590.438C184.217 590.238 183.734 590.043 183.379 589.852C182.41 589.328 181.926 588.623 181.926 587.736C181.926 587.275 182.055 586.865 182.312 586.506C182.574 586.143 182.947 585.859 183.432 585.656C183.92 585.453 184.467 585.352 185.072 585.352C185.682 585.352 186.225 585.463 186.701 585.686C187.178 585.904 187.547 586.215 187.809 586.617C188.074 587.02 188.207 587.477 188.207 587.988H186.449C186.449 587.598 186.326 587.295 186.08 587.08C185.834 586.861 185.488 586.752 185.043 586.752C184.613 586.752 184.279 586.844 184.041 587.027C183.803 587.207 183.684 587.445 183.684 587.742C183.684 588.02 183.822 588.252 184.1 588.439C184.381 588.627 184.793 588.803 185.336 588.967C186.336 589.268 187.064 589.641 187.521 590.086C187.979 590.531 188.207 591.086 188.207 591.75C188.207 592.488 187.928 593.068 187.369 593.49C186.811 593.908 186.059 594.117 185.113 594.117C184.457 594.117 183.859 593.998 183.32 593.76C182.781 593.518 182.369 593.188 182.084 592.77C181.803 592.352 181.662 591.867 181.662 591.316H183.426C183.426 592.258 183.988 592.729 185.113 592.729C185.531 592.729 185.857 592.645 186.092 592.477C186.326 592.305 186.443 592.066 186.443 591.762ZM196.424 586.893H193.811V594H192.053V586.893H189.475V585.469H196.424V586.893ZM203.165 590.303H199.79V592.588H203.751V594H198.032V585.469H203.739V586.893H199.79V588.926H203.165V590.303ZM207.679 585.469L209.87 591.656L212.05 585.469H214.359V594H212.595V591.668L212.771 587.643L210.468 594H209.261L206.964 587.648L207.14 591.668V594H205.382V585.469H207.679ZM223.502 589.928C223.502 590.768 223.353 591.504 223.056 592.137C222.759 592.77 222.334 593.258 221.779 593.602C221.228 593.945 220.595 594.117 219.88 594.117C219.173 594.117 218.543 593.947 217.988 593.607C217.433 593.268 217.004 592.783 216.699 592.154C216.394 591.521 216.24 590.795 216.236 589.975V589.553C216.236 588.713 216.386 587.975 216.687 587.338C216.992 586.697 217.42 586.207 217.97 585.867C218.525 585.523 219.158 585.352 219.869 585.352C220.58 585.352 221.211 585.523 221.761 585.867C222.316 586.207 222.744 586.697 223.045 587.338C223.349 587.975 223.502 588.711 223.502 589.547V589.928ZM221.72 589.541C221.72 588.646 221.56 587.967 221.24 587.502C220.92 587.037 220.463 586.805 219.869 586.805C219.279 586.805 218.824 587.035 218.504 587.496C218.183 587.953 218.021 588.625 218.017 589.512V589.928C218.017 590.799 218.177 591.475 218.498 591.955C218.818 592.436 219.279 592.676 219.88 592.676C220.47 592.676 220.923 592.445 221.24 591.984C221.556 591.52 221.716 590.844 221.72 589.957V589.541Z" fill="white"/>
</g>
<defs>
<filter id="filter0_d_209:1697" x="0" y="0" width="368" height="648" filterUnits="userSpaceOnUse" color-interpolation-filters="sRGB">
<feFlood flood-opacity="0" result="BackgroundImageFix"/>
<feColorMatrix in="SourceAlpha" type="matrix" values="0 0 0 0 0 0 0 0 0 0 0 0 0 0 0 0 0 0 127 0" result="hardAlpha"/>
<feOffset dy="4"/>
<feGaussianBlur stdDeviation="2"/>
<feComposite in2="hardAlpha" operator="out"/>
<feColorMatrix type="matrix" values="0 0 0 0 0 0 0 0 0 0 0 0 0 0 0 0 0 0 0.25 0"/>
<feBlend mode="normal" in2="BackgroundImageFix" result="effect1_dropShadow_209:1697"/>
<feBlend mode="normal" in="SourceGraphic" in2="effect1_dropShadow_209:1697" result="shape"/>
</filter>
</defs>
</svg>
