<svg width="218" height="78" viewBox="0 0 218 78" fill="none" xmlns="http://www.w3.org/2000/svg">
<path fill-rule="evenodd" clip-rule="evenodd" d="M125.891 6.89562H100.159V0H125.891V6.89562ZM22.5059 27.8485C22.5059 26.4175 22.0033 25.3232 20.9981 24.5657C19.9929 23.7912 18.1836 22.9832 15.5701 22.1414C12.9566 21.2828 10.8876 20.4411 9.36303 19.6162C5.20824 17.3603 3.13084 14.3215 3.13084 10.5C3.13084 8.51347 3.6837 6.74579 4.78941 5.19697C5.91187 3.63131 7.5118 2.41077 9.58919 1.53535C11.6833 0.659933 14.0288 0.222222 16.6255 0.222222C19.239 0.222222 21.5677 0.70202 23.6116 1.66162C25.6555 2.60438 27.2387 3.94276 28.3611 5.67677C29.5004 7.41077 30.07 9.38047 30.07 11.5859H22.531C22.531 9.90236 22.0033 8.59764 20.9479 7.67172C19.8924 6.72896 18.4097 6.25758 16.4999 6.25758C14.657 6.25758 13.2246 6.6532 12.2027 7.44444C11.1807 8.21885 10.6698 9.24579 10.6698 10.5253C10.6698 11.7205 11.2645 12.7222 12.454 13.5303C13.6602 14.3384 15.4277 15.096 17.7564 15.803C22.0452 17.0993 25.1697 18.7071 27.1298 20.6263C29.0899 22.5455 30.07 24.936 30.07 27.798C30.07 30.9798 28.8721 33.4798 26.4764 35.298C24.0807 37.0993 20.8557 38 16.8014 38C13.9869 38 11.4237 37.4865 9.11173 36.4596C6.79979 35.4158 5.03233 33.9933 3.80934 32.1919C2.60311 30.3906 2 28.303 2 25.9293H9.56406C9.56406 29.9865 11.9765 32.0152 16.8014 32.0152C18.594 32.0152 19.9929 31.6532 20.9981 30.9293C22.0033 30.1886 22.5059 29.1616 22.5059 27.8485ZM68.0729 6.43266H56.865V37.064H49.3261V6.43266H38.269V0.296296H68.0729V6.43266ZM153.744 27.3939L144.345 0.727273H134.494V37.4949H142.033V27.4444L141.279 10.1212L151.13 37.4949H156.307L166.183 10.096L165.429 27.4444V37.4949H172.993V0.727273H163.092L153.744 27.3939ZM215 19.9444C215 23.564 214.363 26.7374 213.09 29.4646C211.817 32.1919 209.991 34.2963 207.612 35.7778C205.25 37.2593 202.536 38 199.47 38C196.437 38 193.732 37.2677 191.353 35.803C188.974 34.3384 187.131 32.2508 185.824 29.5404C184.518 26.8131 183.856 23.6818 183.839 20.1465V18.3283C183.839 14.7088 184.484 11.5269 185.774 8.78283C187.081 6.02189 188.915 3.90909 191.277 2.44444C193.656 0.962963 196.37 0.222222 199.42 0.222222C202.469 0.222222 205.174 0.962963 207.536 2.44444C209.915 3.90909 211.75 6.02189 213.04 8.78283C214.347 11.5269 215 14.7003 215 18.303V19.9444ZM207.361 18.2778C207.361 14.4226 206.674 11.4933 205.3 9.4899C203.926 7.48653 201.966 6.48485 199.42 6.48485C196.89 6.48485 194.938 7.47811 193.564 9.46465C192.191 11.4343 191.495 14.33 191.479 18.1515V19.9444C191.479 23.6987 192.165 26.6111 193.539 28.6818C194.913 30.7525 196.89 31.7879 199.47 31.7879C202 31.7879 203.943 30.7946 205.3 28.8081C206.657 26.8047 207.344 23.8923 207.361 20.0707V18.2778ZM74.4257 31.0303V37.9259H100.159V31.0303H74.4257ZM87.2921 15.5152V22.4108H113.025V15.5152H87.2921Z" fill="#1560C3"/>
<path d="M14.416 67.166C10.88 66.571 8.942 64.14 8.942 61.845V60.723H6.545V61.845C6.545 64.089 4.59 66.571 1.071 67.166L2.023 69.053C4.743 68.526 6.732 66.996 7.735 65.007C8.738 66.996 10.744 68.509 13.464 69.053L14.416 67.166ZM0.731 71.739V73.558H14.909V71.739H0.731ZM19.8037 67.472H22.8807V65.738H19.8037V63.307H23.4757V61.522H17.6787V72.011H18.7497C20.9937 72.011 22.4897 71.977 24.2577 71.688L24.0707 69.903C22.6597 70.124 21.4357 70.192 19.8037 70.209V67.472ZM25.2947 65.5H23.5947V67.319H25.2947V74.765H27.3857V60.094H25.2947V65.5ZM28.5417 59.788V75.445H30.6667V59.788H28.5417ZM37.3973 62.729H44.1463V66.877H37.3973V62.729ZM41.9023 71.824V68.645H46.3393V60.961H35.2043V68.645H39.6583V71.824H33.7083V73.643H47.8863V71.824H41.9023ZM50.5036 72.8213C50.5036 72.4395 50.6309 72.1296 50.8854 71.8916C51.1455 71.6536 51.4693 71.5347 51.8566 71.5347C52.2495 71.5347 52.5733 71.6536 52.8278 71.8916C53.0879 72.1296 53.218 72.4395 53.218 72.8213C53.218 73.1976 53.0907 73.5047 52.8361 73.7427C52.5816 73.9751 52.2551 74.0913 51.8566 74.0913C51.4637 74.0913 51.14 73.9751 50.8854 73.7427C50.6309 73.5047 50.5036 73.1976 50.5036 72.8213ZM50.5036 66.0229C50.5036 65.6411 50.6309 65.3312 50.8854 65.0933C51.1455 64.8553 51.4693 64.7363 51.8566 64.7363C52.2495 64.7363 52.5733 64.8553 52.8278 65.0933C53.0879 65.3312 53.218 65.6411 53.218 66.0229C53.218 66.3993 53.0907 66.7064 52.8361 66.9443C52.5816 67.1768 52.2551 67.293 51.8566 67.293C51.4637 67.293 51.14 67.1768 50.8854 66.9443C50.6309 66.7064 50.5036 66.3993 50.5036 66.0229ZM70.1423 61.216H66.6573V59.703H64.3963V61.216H60.9113V62.984H70.1423V61.216ZM63.8353 66.265C63.8353 65.5 64.5323 65.109 65.5353 65.109C66.5383 65.109 67.2353 65.5 67.2353 66.265C67.2353 67.047 66.5383 67.438 65.5353 67.438C64.5323 67.438 63.8353 67.047 63.8353 66.265ZM69.3773 66.265C69.3773 64.599 67.7963 63.46 65.5353 63.46C63.2743 63.46 61.6933 64.599 61.6933 66.265C61.6933 67.965 63.2743 69.087 65.5353 69.087C67.7963 69.087 69.3773 67.965 69.3773 66.265ZM65.2803 71.688H71.0603V73.524H65.2803V71.688ZM63.0703 75.275H73.2533V69.92H63.0703V75.275ZM75.3273 63.664H73.2533V59.822H71.0093V69.24H73.2533V65.5H75.3273V63.664ZM77.6889 61.573V63.392H79.3039C79.2019 66.435 78.7429 68.781 77.1789 71.229L78.8959 72.181C80.8509 69.053 81.2249 65.551 81.2249 61.573H77.6889ZM85.8489 65.687H84.5569C84.6759 64.344 84.7099 62.984 84.7099 61.573H81.6839V63.392H82.8059C82.7379 66.588 82.3809 69.308 80.6639 71.977L82.3809 72.929C83.4349 71.229 84.0299 69.41 84.3529 67.489H85.8489V74.782H87.9229V60.145H85.8489V65.687ZM88.8579 59.805V75.479H90.9999V59.805H88.8579ZM107.217 67.863C107.285 67.438 107.319 66.962 107.319 66.469C107.319 65.874 107.268 65.313 107.166 64.803H109.886V67.863H107.217ZM103.273 70.039C102.134 70.039 101.352 68.798 101.352 66.469C101.352 64.157 102.134 62.916 103.273 62.916C104.429 62.916 105.211 64.157 105.211 66.469C105.211 68.798 104.429 70.039 103.273 70.039ZM109.886 59.788V63.001H106.554C105.857 61.658 104.684 60.893 103.273 60.893C100.944 60.893 99.227 63.035 99.227 66.469C99.227 69.92 100.944 72.079 103.273 72.079C104.786 72.096 105.993 71.212 106.69 69.682H109.886V75.496H112.13V59.788H109.886ZM125.542 65.483H126.698V69.597H128.823V59.805H126.698V63.664H125.542V60.094H123.451V69.104H125.542V65.483ZM123.009 61.403H120.306V59.975H118.096V61.403H115.393V63.137H123.009V61.403ZM117.841 66.367C117.841 65.636 118.402 65.245 119.235 65.245C120.068 65.245 120.612 65.636 120.612 66.367C120.612 67.098 120.068 67.506 119.235 67.506C118.402 67.506 117.841 67.098 117.841 66.367ZM122.601 66.367C122.601 64.752 121.207 63.647 119.235 63.647C117.246 63.647 115.852 64.752 115.852 66.367C115.852 67.982 117.246 69.104 119.235 69.104C121.207 69.104 122.601 67.982 122.601 66.367ZM123.519 73.796C121.428 73.796 120.374 73.439 120.374 72.623C120.374 71.807 121.428 71.45 123.519 71.45C125.61 71.45 126.664 71.807 126.664 72.623C126.664 73.439 125.61 73.796 123.519 73.796ZM123.519 69.767C120.153 69.767 118.13 70.804 118.13 72.623C118.13 74.442 120.153 75.462 123.519 75.462C126.885 75.462 128.908 74.442 128.908 72.623C128.908 70.804 126.885 69.767 123.519 69.767ZM139.038 61.675C141.316 61.675 142.387 61.998 142.387 62.695C142.387 63.426 141.316 63.732 139.038 63.732C136.777 63.732 135.706 63.426 135.706 62.695C135.706 61.998 136.777 61.675 139.038 61.675ZM139.038 65.364C142.625 65.364 144.716 64.429 144.716 62.695C144.716 60.978 142.625 60.026 139.038 60.026C135.468 60.026 133.377 60.978 133.377 62.695C133.377 64.429 135.468 65.364 139.038 65.364ZM135.825 72.776H144.393V68.747H133.581V70.396H142.183V71.229H133.598V75.343H144.801V73.66H135.825V72.776ZM131.966 66.112V67.863H146.11V66.112H131.966ZM154.405 61.42V63.205H159.624C159.301 66.673 157.567 69.121 153.572 71.042L154.745 72.81C160.304 70.124 161.919 66.214 161.919 61.42H154.405ZM164.316 59.788V75.445H166.577V59.788H164.316ZM171.591 72.623H180.329V75.411H182.573V70.855H171.591V72.623ZM178.238 68.186V67.064H182.794V65.364H174.005V64.344H182.471V60.111H171.761V61.811H180.261V62.763H171.795V67.064H175.994V68.186H170.027V69.971H184.205V68.186H178.238ZM191.038 70.43C189.984 70.43 189.202 69.716 189.202 68.526C189.202 67.336 189.984 66.605 191.038 66.605C192.092 66.605 192.857 67.336 192.857 68.509C192.857 69.716 192.092 70.43 191.038 70.43ZM191.038 64.786C188.76 64.786 187.06 66.333 187.06 68.509C187.06 70.719 188.76 72.266 191.038 72.266C193.299 72.266 194.982 70.719 194.982 68.509C194.982 66.333 193.299 64.786 191.038 64.786ZM192.143 60.077H189.899V62.117H186.431V63.902H195.543V62.117H192.143V60.077ZM201.051 65.925H198.807V59.805H196.563V75.462H198.807V67.778H201.051V65.925ZM205.843 63.069H210.909V61.25H203.616V71.739H204.942C207.662 71.739 209.804 71.654 212.167 71.229L211.946 69.376C209.923 69.716 208.07 69.835 205.843 69.869V63.069ZM217.539 65.585H215.261V59.805H213.017V75.496H215.261V67.438H217.539V65.585Z" fill="#1560C3"/>
</svg>
